# xmcd
#
# Track frame offsets: 
#        150
#        21941
#        40374
#        58454
#        73755
#        85116
#        111893
#        120619
#        132146
#
# Disc length: 2042 seconds
#
# Revision: 0
# Processed by: cddbd v1.5.2PL0 Copyright (c) Steve Scherf et al.
# Submitted via: ExactAudioCopy v1.3
#
DISCID=8007f809
DTITLE=Cuby and The blizzards - King of the world (USA edition)
DYEAR=2016
DGENRE=Blues
TTITLE0=King of the world
TTITLE1=Feel so bad
TTITLE2=The big bell
TTITLE3=Big blue eyed girl
TTITLE4=Goin' home
TTITLE5=The sky is crying
TTITLE6=Another day, another road
TTITLE7=Trippin' thru a midnight blues
TTITLE8=No shoes
EXTD=
EXTT0=
EXTT1=
EXTT2=
EXTT3=
EXTT4=
EXTT5=
EXTT6=
EXTT7=
EXTT8=
PLAYORDER=
